<svg viewBox="0 0 200 200" class="asset_svg" fill="none" xmlns="http://www.w3.org/2000/svg"> <path d="M128.267 161.623C130.019 161.628 131.755 161.283 133.373 160.611C134.991 159.939 136.46 158.951 137.693 157.707L140.05 155.34C141.386 153.995 142.422 152.381 143.088 150.605C143.754 148.829 144.035 146.933 143.913 145.04C145.803 145.158 147.695 144.872 149.466 144.201C151.236 143.53 152.843 142.49 154.18 141.15L156.537 138.783C157.873 137.438 158.909 135.824 159.575 134.048C160.241 132.273 160.522 130.376 160.4 128.483C162.289 128.595 164.18 128.306 165.95 127.635C167.719 126.964 169.327 125.926 170.667 124.59L173.02 122.223L182.44 112.763C193.668 101.443 199.967 86.1454 199.967 70.2017C199.967 54.258 193.668 38.9601 182.44 27.64C171.616 16.7509 157.018 10.4431 141.671 10.0236C126.323 9.60408 111.402 15.1051 100 25.3867C88.5972 15.1052 73.6763 9.60402 58.3283 10.0229C42.9804 10.4418 28.3817 16.7485 17.5567 27.6367C6.32896 38.9574 0.0290527 54.2558 0.0290527 70.2C0.0290527 86.1443 6.32896 101.443 17.5567 112.763L38.7533 134.053L41.11 136.417C42.3424 137.662 43.8103 138.65 45.4281 139.322C47.0459 139.994 48.7813 140.338 50.5333 140.333C50.84 140.333 51.1333 140.263 51.4367 140.243C51.2934 142.142 51.5584 144.049 52.2139 145.837C52.8694 147.624 53.9001 149.251 55.2367 150.607L57.5933 152.973C58.8264 154.218 60.2944 155.205 61.9121 155.877C63.5297 156.549 65.2648 156.894 67.0167 156.89C67.3233 156.89 67.6167 156.823 67.9167 156.803C67.7733 158.701 68.039 160.607 68.6957 162.393C69.3524 164.18 70.3849 165.804 71.7233 167.157L74.0767 169.523C75.3101 170.769 76.7791 171.757 78.398 172.43C80.0169 173.103 81.7535 173.448 83.5067 173.443C83.81 173.443 84.1033 173.377 84.4067 173.357C84.2663 175.25 84.5327 177.152 85.1881 178.935C85.8436 180.717 86.8728 182.338 88.2067 183.69L90.57 186.063C91.802 187.312 93.2703 188.304 94.8893 188.98C96.5083 189.656 98.2456 190.002 100 190C101.751 190.004 103.486 189.66 105.103 188.988C106.721 188.315 108.188 187.328 109.42 186.083L123.543 171.9C124.883 170.546 125.916 168.92 126.572 167.132C127.229 165.344 127.494 163.436 127.35 161.537C127.653 161.557 127.95 161.623 128.257 161.623H128.267ZM177.717 32.3334C187.704 42.4014 193.309 56.0084 193.309 70.19C193.309 84.3716 187.704 97.9787 177.717 108.047L176.42 109.35C175.841 107.079 174.669 105.003 173.023 103.333L121.203 51.2934C119.301 49.468 116.766 48.4488 114.13 48.4488C111.494 48.4488 108.959 49.468 107.057 51.2934L81.15 77.31C78.6188 79.7417 75.245 81.0997 71.735 81.0997C68.225 81.0997 64.8512 79.7417 62.32 77.31C61.6926 76.6781 61.3406 75.8238 61.3406 74.9334C61.3406 74.0429 61.6926 73.1886 62.32 72.5567L102.363 32.3334C107.299 27.3683 113.168 23.4282 119.633 20.7395C126.097 18.0508 133.029 16.6666 140.03 16.6666C147.031 16.6666 153.963 18.0508 160.427 20.7395C166.892 23.4282 172.761 27.3683 177.697 32.3334H177.717ZM22.2833 32.3334C31.8385 22.7006 44.7241 17.0992 58.2858 16.6831C71.8474 16.267 85.0522 21.0679 95.18 30.0967L57.6 67.8467C55.7302 69.7299 54.6808 72.2762 54.6808 74.93C54.6808 77.5839 55.7302 80.1301 57.6 82.0134C59.4537 83.8759 61.6572 85.3538 64.0837 86.3623C66.5103 87.3707 69.1122 87.8899 71.74 87.8899C74.3678 87.8899 76.9697 87.3707 79.3963 86.3623C81.8228 85.3538 84.0263 83.8759 85.88 82.0134L111.783 56C112.413 55.3907 113.254 55.05 114.13 55.05C115.006 55.05 115.847 55.3907 116.477 56L168.297 108.033C169.549 109.294 170.252 110.998 170.252 112.775C170.252 114.552 169.549 116.256 168.297 117.517L165.94 119.883C164.677 121.099 162.992 121.778 161.238 121.778C159.485 121.778 157.8 121.099 156.537 119.883L118.85 82.0367C118.226 81.4099 117.378 81.0567 116.494 81.0548C115.609 81.053 114.76 81.4025 114.133 82.0267C113.507 82.6508 113.153 83.4984 113.151 84.383C113.15 85.2675 113.499 86.1166 114.123 86.7434L151.81 124.59C153.062 125.851 153.764 127.556 153.764 129.333C153.764 131.11 153.062 132.815 151.81 134.077L149.457 136.443C148.192 137.657 146.508 138.335 144.755 138.335C143.002 138.335 141.318 137.657 140.053 136.443L102.363 98.5934C102.054 98.283 101.687 98.0366 101.283 97.8681C100.879 97.6996 100.445 97.6124 100.007 97.6115C99.5691 97.6106 99.1352 97.6959 98.7302 97.8627C98.3252 98.0294 97.957 98.2743 97.6467 98.5834C97.3363 98.8924 97.0899 99.2595 96.9214 99.6638C96.7529 100.068 96.6657 100.502 96.6648 100.94C96.6639 101.378 96.7492 101.811 96.916 102.216C97.0827 102.621 97.3276 102.99 97.6367 103.3L135.333 141.15C136.583 142.41 137.284 144.113 137.284 145.888C137.284 147.663 136.583 149.366 135.333 150.627L132.977 152.997C132.361 153.617 131.628 154.11 130.821 154.446C130.014 154.782 129.148 154.955 128.273 154.955C127.399 154.955 126.533 154.782 125.726 154.446C124.919 154.11 124.186 153.617 123.57 152.997C123.57 152.98 123.527 152.973 123.507 152.957L121.22 150.623C119.856 149.312 118.23 148.305 116.449 147.668C114.668 147.031 112.772 146.778 110.887 146.927C111.051 145.009 110.797 143.078 110.142 141.268C109.487 139.458 108.447 137.812 107.093 136.443L104.74 134.073C103.506 132.828 102.037 131.84 100.418 131.167C98.7995 130.494 97.0631 130.15 95.31 130.153C95.0033 130.153 94.71 130.22 94.4067 130.24C94.5509 128.342 94.2863 126.436 93.6308 124.649C92.9752 122.863 91.944 121.237 90.6067 119.883L88.25 117.513C86.8894 116.197 85.2642 115.186 83.4825 114.547C81.7008 113.908 79.8035 113.656 77.9167 113.807C78.0762 111.888 77.8172 109.959 77.1576 108.15C76.4981 106.342 75.4537 104.698 74.0967 103.333L71.7433 100.963C70.5074 99.7207 69.038 98.7346 67.4197 98.0616C65.8014 97.3887 64.066 97.0423 62.3133 97.0423C60.5607 97.0423 58.8253 97.3887 57.207 98.0616C55.5887 98.7346 54.1193 99.7207 52.8833 100.963L38.7533 115.153C37.1071 116.829 35.936 118.913 35.36 121.19L22.2833 108.057C12.2935 97.9878 6.68782 84.3788 6.68782 70.195C6.68782 56.0112 12.2935 42.4022 22.2833 32.3334ZM50.5367 133.667C49.6627 133.668 48.7971 133.496 47.9902 133.16C47.1833 132.824 46.4513 132.331 45.8367 131.71L43.4833 129.347C42.2313 128.085 41.5287 126.379 41.5287 124.602C41.5287 122.824 42.2313 121.119 43.4833 119.857L57.61 105.667C58.226 105.046 58.9587 104.553 59.7659 104.217C60.5731 103.881 61.4389 103.708 62.3133 103.708C63.1878 103.708 64.0535 103.881 64.8607 104.217C65.668 104.553 66.4007 105.046 67.0167 105.667L69.3733 108.037C70.6252 109.298 71.3277 111.003 71.3277 112.78C71.3277 114.557 70.6252 116.262 69.3733 117.523L55.24 131.713C54.6248 132.335 53.8921 132.827 53.0847 133.163C52.2772 133.498 51.411 133.669 50.5367 133.667ZM67.0233 150.223C66.1493 150.225 65.2837 150.053 64.4769 149.717C63.67 149.381 62.938 148.888 62.3233 148.267L59.9667 145.903C58.7146 144.642 58.012 142.936 58.012 141.158C58.012 139.381 58.7146 137.675 59.9667 136.413L74.0967 122.223C74.7136 121.604 75.4468 121.112 76.2542 120.777C77.0616 120.441 77.9274 120.269 78.8017 120.269C79.676 120.269 80.5417 120.441 81.3491 120.777C82.1565 121.112 82.8897 121.604 83.5067 122.223L85.86 124.593C87.1121 125.855 87.8147 127.561 87.8147 129.338C87.8147 131.116 87.1121 132.822 85.86 134.083L71.73 148.267C71.1149 148.889 70.3819 149.384 69.5738 149.72C68.7657 150.057 67.8987 150.225 67.0233 150.223ZM78.81 164.823L76.4533 162.453C75.2001 161.194 74.4965 159.489 74.4965 157.712C74.4965 155.935 75.2001 154.23 76.4533 152.97L90.5833 138.78C91.8479 137.565 93.5333 136.887 95.2867 136.887C97.04 136.887 98.7254 137.565 99.99 138.78L102.347 141.15C103.595 142.41 104.295 144.111 104.295 145.885C104.295 147.659 103.595 149.36 102.347 150.62L102.327 150.637L88.2033 164.82V164.837C86.9389 166.047 85.2553 166.723 83.5047 166.721C81.754 166.719 80.0719 166.04 78.81 164.827V164.823ZM118.81 167.19L104.7 181.38C104.084 182 103.352 182.491 102.546 182.827C101.74 183.162 100.875 183.335 100.002 183.335C99.1283 183.335 98.2636 183.162 97.4573 182.827C96.6509 182.491 95.9189 182 95.3033 181.38L92.94 179.01C91.6916 177.75 90.9912 176.049 90.9912 174.275C90.9912 172.501 91.6916 170.8 92.94 169.54L107.073 155.333C107.686 154.72 108.413 154.233 109.214 153.901C110.015 153.569 110.873 153.399 111.74 153.4C113.506 153.397 115.201 154.095 116.453 155.34L118.787 157.727C120.041 158.981 120.748 160.679 120.755 162.452C120.762 164.226 120.067 165.93 118.823 167.193L118.81 167.19Z" fill="white"/> </svg>