<svg viewBox="0 0 200 200" class="asset_svg" fill="none" xmlns="http://www.w3.org/2000/svg"> <path d="M146.484 169.219C145.898 162.305 146.406 155.352 146.406 148.398C146.445 135.82 144.062 124.648 140.937 111.406C139.687 106.055 135.859 101.602 132.305 97.9687C124.844 90.3515 117.383 82.7344 109.961 75.1172C108.477 73.5937 107.305 70.2734 107.539 68.0859C108.203 61.7187 109.375 55.3515 110.938 49.1406C111.367 47.5 111.094 45.7812 110.234 44.3359C109.18 42.5781 107.305 41.4062 105.273 41.25C101.758 40.9765 98.2812 41.289 94.8828 42.1484C94.2969 41.2109 93.6328 40.3515 92.8125 39.6094C90.3906 37.3437 86.6406 37.4219 84.3359 39.7265C81.7578 42.2656 79.2969 44.6484 76.9531 46.9531C76.3281 43.789 74.9219 40.7812 72.7734 38.4375C69.7266 35 62.4609 31.4453 58.4766 35.1172C57.2656 36.2109 56.5234 37.7344 56.4453 39.3359C56.4453 39.5703 54.7266 68.0469 54.7656 68.2812C50.8594 71.6015 46.5625 75.7031 46.7187 81.4062C46.9531 89.1797 47.0703 97.2265 48.0469 104.922C45.5859 110.82 43.5547 116.68 42.0312 122.5C41.3672 125.078 41.7187 127.773 42.9687 130.117C45.0781 133.984 47.1094 137.422 49.1406 140.508C49.3359 141.484 49.6484 142.422 50.1172 143.32C54.8437 152.734 59.4531 159.961 64.6094 165.977C73.4375 176.328 88.2812 180.039 100 186.25C100.898 188.711 102.227 191.172 103.008 193.594C103.398 194.844 104.57 195.625 105.781 195.625C107.734 195.664 109.18 193.672 108.594 191.797C107.695 188.867 106.094 186.094 105.195 183.32C104.961 182.617 104.492 182.031 103.828 181.641C99.9219 179.453 95.625 177.617 91.4844 175.82C83.125 172.187 74.4922 168.477 69.0625 162.148C64.2187 156.484 59.8437 149.687 55.3516 140.664C54.8047 139.57 54.6484 138.32 54.9219 137.148C57.5 126.68 61.3281 116.445 66.25 106.836C67.0703 105.234 68.5937 104.102 70.3125 103.75C78.2422 102.266 86.3672 101.367 94.4531 101.055C95.3125 101.016 96.1719 101.172 96.9531 101.523C102.539 103.984 108.398 108.086 112.461 113.242C110.43 116.172 108.672 117.187 105.625 117.187C102.031 117.187 98.6328 115.625 96.9531 113.164C96.3672 112.305 95.3516 111.797 94.2969 111.914C89.4531 112.344 83.6719 112.656 77.6562 111.875C76.1328 111.68 74.7266 112.695 74.4141 114.18C73.9062 116.602 73.125 118.984 72.2656 121.484C71.4062 124.062 70.5078 126.68 69.9609 129.414C69.6875 130.703 69.3359 132.305 69.5703 134.023C70.0781 137.891 73.125 140.43 75.1172 142.109C76.3672 143.164 78.2031 143.008 79.2578 141.758C80.3125 140.508 80.1562 138.672 78.9062 137.617C77.2266 136.211 75.5859 134.727 75.3906 133.203C75.3125 132.5 75.5078 131.523 75.7031 130.586C76.5625 126.445 78.3594 122.187 79.5312 117.93C84.4531 118.359 89.1406 118.164 93.2422 117.852C96.1328 121.094 100.586 122.969 105.469 123.047C110.625 123.086 114.18 121.133 117.383 116.523C118.477 115 118.711 112.969 118.008 111.211C116.914 108.711 114.727 106.914 112.812 105.039C115.977 101.758 115.625 98.3594 112.422 95.2734C107.383 90.1562 101.484 86.2109 94.8438 83.4765C92.7344 82.6172 90.5078 82.5 88.2422 82.6562C87.6562 76.6797 87.9687 72.8906 88.75 67.5C92.7734 61.4453 97.0312 55.0781 96.7578 47.6953C99.4141 47.0703 102.148 46.8359 104.883 47.0312C105.039 47.0312 105.234 47.1875 105.273 47.2656C105.312 47.3437 105.352 47.4609 105.312 47.6172C103.672 54.1015 102.461 60.7422 101.758 67.3828C101.328 71.289 103.086 76.3281 105.82 79.1015C113.281 86.7187 120.742 94.3359 128.164 101.953C131.172 105 134.336 108.672 135.273 112.656C138.32 125.547 140.625 136.367 140.586 148.32C140.312 162.734 139.141 179.219 147.539 190.977C149.844 194.062 154.453 190.937 152.344 187.617C149.062 183.008 147.109 176.836 146.484 169.219ZM62.3828 39.4922C62.4219 39.4531 62.5 39.414 62.5781 39.414C64.8437 39.6875 66.9141 40.7422 68.4375 42.4219C70.8203 44.9609 71.7969 48.9844 71.25 52.539C68.0078 55.7031 64.6094 59.0234 60.9375 62.6172L62.3047 39.6875C62.3047 39.6094 62.3437 39.5703 62.3828 39.4922ZM89.8047 88.4765C90.7812 88.4375 91.7188 88.5937 92.6172 88.9453C98.8281 91.5625 104.57 95.3125 109.023 100.391C108.789 100.703 108.516 101.016 108.242 101.328C105.391 99.2187 102.344 97.4609 99.2578 96.1328C97.6562 95.4297 95.9375 95.1172 94.2187 95.1953C85.8594 95.5078 77.4609 96.4453 69.2187 97.9687C65.7031 98.6328 62.6172 100.977 61.0156 104.18C56.6016 112.852 53.0078 121.992 50.3906 131.367C49.6484 130.078 48.8672 128.711 48.125 127.305C47.5781 126.289 47.4219 125.117 47.6953 123.984C50.2344 114.18 54.2969 104.18 59.6875 94.2187C60.625 92.5781 62.2266 91.4453 64.1406 91.1328C72.5781 89.6484 81.2109 88.75 89.8047 88.4765ZM82.3438 83.0078C80 83.164 77.6562 83.3984 75.3125 83.6328C75.5469 82.4609 76.1719 81.4062 77.1094 80.625C78.7109 79.2969 80.3906 77.6953 82.0312 75.8984C82.0312 78.0859 82.1094 80.3515 82.3438 83.0078ZM88.9453 55.664C86.1328 61.7578 79.2187 71.4062 73.4375 76.0937C70.8984 78.125 69.4531 81.1719 69.3359 84.375C67.2656 84.6484 65.1953 85 63.125 85.3515C57.7344 86.3281 55.1953 89.6484 52.9688 94.3359C52.7344 89.9609 52.6562 85.625 52.5391 81.25C52.4609 77.8906 56.1719 74.7265 59.4922 71.914C65.5469 66.6406 71.2891 60.4687 76.4453 55.5859C80.1953 51.914 84.1016 48.125 88.3984 43.8672C88.5156 43.75 88.6719 43.75 88.7891 43.8672C92.0703 47.2265 91.0547 51.0156 88.9453 55.664Z" fill="#FBFBFB"/> <path d="M111.797 127.5C108.242 125.898 105.781 130.859 109.18 132.734C117.773 136.992 123.906 145.937 124.805 155.469C124.961 156.992 126.211 158.125 127.734 158.125H128.008C129.609 157.969 130.781 156.523 130.625 154.922C129.531 143.398 122.148 132.656 111.797 127.5Z" fill="#FBFBFB"/> <path d="M113.086 37.2266C113.828 37.2266 114.57 36.9531 115.156 36.3672L120 31.5234C121.133 30.3906 121.133 28.5156 120 27.3828C118.867 26.25 116.992 26.25 115.859 27.3828L111.016 32.2266C109.141 34.0625 110.508 37.2656 113.086 37.2266Z" fill="#FBFBFB"/> <path d="M116.211 43.5547C116.445 45.1562 117.969 46.2891 119.531 46.0547L126.328 45.1172C130.156 44.4141 129.375 38.9453 125.508 39.2969L118.711 40.2344C117.109 40.4687 115.977 41.9531 116.211 43.5547Z" fill="#FBFBFB"/> <path d="M119.453 51.3672C115.859 49.8828 113.555 54.9219 116.992 56.6797L123.203 59.5312C124.648 60.1953 126.406 59.5703 127.07 58.0859C127.734 56.6016 127.109 54.8828 125.625 54.2187L119.453 51.3672Z" fill="#FBFBFB"/> <path d="M33.9844 45.3125C34.0625 43.75 32.8906 42.4219 31.3672 42.2656C24.7656 41.6016 21.7969 38.2813 21.6797 31.5235C21.6797 29.961 20.4297 28.711 18.8672 28.6328C17.3047 28.5547 15.9766 29.7266 15.8203 31.2891C15.1562 37.8906 11.8359 40.8594 5.03906 40.9375C3.47656 40.9375 2.22656 42.1875 2.14843 43.75C2.07031 45.3125 3.24218 46.6407 4.76562 46.7969C11.3672 47.461 14.3359 50.7813 14.4141 57.5781C14.4531 59.1406 15.6641 60.3907 17.2266 60.4688C18.75 60.5469 20.1172 59.375 20.2734 57.8516C20.9375 51.25 24.2578 48.2813 31.0156 48.2031C32.6562 48.086 33.9062 46.875 33.9844 45.3125ZM17.8906 47.8125C17.0703 46.4844 16.0156 45.3125 14.8047 44.336C16.1719 43.5156 17.3047 42.461 18.2812 41.25C19.1016 42.5781 20.1562 43.75 21.3672 44.7266C20.0391 45.5469 18.8672 46.5625 17.8906 47.8125Z" fill="#FBFBFB"/> <path d="M133.125 25.1172C138.555 26.8359 140.391 30 139.297 35.7031C138.711 39.2969 143.75 40.625 144.961 37.1484C146.68 31.7187 149.844 29.8828 155.547 30.9766C159.18 31.5625 160.469 26.5234 156.992 25.3125C153.398 24.1797 149.727 20.8984 153.281 5.35156C153.984 1.64062 148.789 0.273433 147.617 3.86718C143.242 19.0234 138.32 20.1172 134.57 19.4141C130.938 18.8672 129.648 23.9453 133.125 25.1172ZM145.586 21.2109C145.859 20.9375 146.094 20.6641 146.367 20.3516C146.719 22.2266 147.305 23.9844 148.203 25.5469C146.836 25.9766 145.625 26.6406 144.531 27.5C143.984 26.1719 143.242 24.9609 142.266 23.9062C143.398 23.2031 144.531 22.3047 145.586 21.2109Z" fill="#FBFBFB"/> <path d="M42.8125 75.8594C43.7109 74.4922 43.3203 72.6953 41.9531 71.7969L39.0625 69.9219L40.9766 67.0313C41.875 65.6641 41.4844 63.8672 40.1172 62.9688C38.75 62.0703 36.9531 62.461 36.0547 63.8281L34.1406 66.7188L31.25 64.8047C29.8828 63.9063 28.0859 64.2969 27.1875 65.6641C26.2891 67.0313 26.6797 68.8281 28.0469 69.7266L30.9375 71.6016L29.0625 74.4922C28.1641 75.8594 28.5547 77.6563 29.9219 78.5547C31.25 79.4531 33.0859 79.0625 33.9844 77.6953L35.8594 74.8047L38.75 76.6797C40.0781 77.6172 41.9141 77.2266 42.8125 75.8594Z" fill="#FBFBFB"/> <path d="M138.945 87.9687C140.156 89.0234 141.992 88.9062 143.086 87.6953L145.352 85.0781L147.969 87.3437C149.18 88.3984 151.016 88.2812 152.109 87.0703C153.164 85.8593 153.047 83.9843 151.836 82.9297L149.219 80.664L151.484 78.0468C152.539 76.8359 152.422 74.9609 151.211 73.9062C150 72.8515 148.125 72.9687 147.07 74.1796L144.805 76.7968L142.187 74.5312C140.977 73.4765 139.102 73.5937 138.047 74.8046C136.992 76.0156 137.109 77.8906 138.32 78.9453L140.937 81.2109L138.672 83.8281C137.617 85.039 137.734 86.875 138.945 87.9687Z" fill="#FBFBFB"/> <path d="M64.2187 21.5234L67.4219 22.8516L66.0937 26.0547C65.4687 27.5391 66.2109 29.2578 67.6953 29.8828C69.1406 30.5078 70.8984 29.8047 71.5234 28.2812L72.8125 25.0781L76.0156 26.4062C77.4609 27.0312 79.2187 26.3281 79.8437 24.8047C80.4687 23.3203 79.7266 21.6016 78.2422 20.9766L75.0391 19.6484L76.3672 16.4453C76.9922 14.9609 76.25 13.2422 74.7656 12.6172C73.2812 11.9922 71.5625 12.7344 70.9375 14.2187L69.6094 17.4219L66.4062 16.1328C62.7734 14.7656 60.6641 19.9219 64.2187 21.5234Z" fill="#FBFBFB"/> <path d="M161.016 102.422C156.719 102.422 153.242 105.898 153.242 110.195C153.672 120.508 168.359 120.508 168.789 110.195C168.789 105.937 165.313 102.422 161.016 102.422ZM161.016 112.109C158.477 112.031 158.477 108.359 161.016 108.281C163.555 108.359 163.555 112.031 161.016 112.109Z" fill="#FBFBFB"/> </svg>