<svg viewBox="0 0 200 200" class="asset_svg" fill="none" xmlns="http://www.w3.org/2000/svg"> <mask id="mask0_14_224" style="mask-type:luminance" maskUnits="userSpaceOnUse" x="0" y="0" width="200" height="200"> <path d="M0 1.52588e-05H200V200H0V1.52588e-05Z" fill="white"/> </mask> <g mask="url(#mask0_14_224)"> <path d="M34.8326 38.6187C38.1365 34.8375 41.7404 31.3281 45.6068 28.1277" stroke="#FBFBFB" stroke-width="5" stroke-miterlimit="10" stroke-linecap="round" stroke-linejoin="round"/> <path d="M14.213 78.9595C16.5454 68.8177 20.5275 59.3103 25.8591 50.738" stroke="#FBFBFB" stroke-width="5" stroke-miterlimit="10" stroke-linecap="round" stroke-linejoin="round"/> <path d="M45.027 171.389C24.7387 154.316 11.8363 128.672 11.8363 100C11.8363 98.9109 11.8551 97.8262 11.8918 96.7465" stroke="#FBFBFB" stroke-width="5" stroke-miterlimit="10" stroke-linecap="round" stroke-linejoin="round"/> <path d="M149.333 181.433C136.038 188.848 120.736 193.07 104.453 193.07C88.2254 193.07 72.9727 188.877 59.7094 181.508" stroke="#FBFBFB" stroke-width="5" stroke-miterlimit="10" stroke-linecap="round" stroke-linejoin="round"/> <path d="M182.987 50.6411C191.911 64.9485 197.07 81.8688 197.07 100C197.07 128.631 184.206 154.241 163.968 171.314" stroke="#FBFBFB" stroke-width="5" stroke-miterlimit="10" stroke-linecap="round" stroke-linejoin="round"/> <path d="M162.479 27.4555C165.906 30.2274 169.133 33.2399 172.134 36.4669" stroke="#FBFBFB" stroke-width="5" stroke-miterlimit="10" stroke-linecap="round" stroke-linejoin="round"/> <path d="M60.2882 18.1729C73.4156 11.0029 88.4613 6.92988 104.453 6.92988C120.035 6.92988 134.718 10.7967 147.604 17.6271" stroke="#FBFBFB" stroke-width="5" stroke-miterlimit="10" stroke-linecap="round" stroke-linejoin="round"/> <path d="M112.209 39.4652C122.641 32.9734 134.133 27.8711 146.482 24.4652" stroke="#FBFBFB" stroke-width="5" stroke-miterlimit="10" stroke-linecap="round" stroke-linejoin="round"/> <path d="M74.2588 75.3527C80.9318 65.8827 88.8482 57.2863 97.8299 49.8335" stroke="#FBFBFB" stroke-width="5" stroke-miterlimit="10" stroke-linecap="round" stroke-linejoin="round"/> <path d="M51.0973 167.506C47.7633 140.249 53.0344 113.643 64.9411 90.6834" stroke="#FBFBFB" stroke-width="5" stroke-miterlimit="10" stroke-linecap="round" stroke-linejoin="round"/> <path d="M96.6972 39.4652C85.9129 32.7539 73.9961 27.5277 61.1695 24.1254" stroke="#FBFBFB" stroke-width="5" stroke-miterlimit="10" stroke-linecap="round" stroke-linejoin="round"/> <path d="M147.376 97.7657C139.137 79.2704 126.724 62.8169 111.078 49.8341" stroke="#FBFBFB" stroke-width="5" stroke-miterlimit="10" stroke-linecap="round" stroke-linejoin="round"/> <path d="M157.379 132.151C156.499 126.204 155.211 120.318 153.529 114.547" stroke="#FBFBFB" stroke-width="5" stroke-miterlimit="10" stroke-linecap="round" stroke-linejoin="round"/> <path d="M157.754 167.95C158.529 161.779 158.873 155.556 158.777 149.337" stroke="#FBFBFB" stroke-width="5" stroke-miterlimit="10" stroke-linecap="round" stroke-linejoin="round"/> <path d="M60.8852 81.1531C47.5431 81.0852 33.9997 82.5168 20.4645 85.5711" stroke="#FBFBFB" stroke-width="5" stroke-miterlimit="10" stroke-linecap="round" stroke-linejoin="round"/> <path d="M143.025 101.663C123.162 91.2497 101.338 84.5279 78.6354 82.1326" stroke="#FBFBFB" stroke-width="5" stroke-miterlimit="10" stroke-linecap="round" stroke-linejoin="round"/> <path d="M189.594 136.689C180.164 126.842 169.682 118.136 158.384 110.708" stroke="#FBFBFB" stroke-width="5" stroke-miterlimit="10" stroke-linecap="round" stroke-linejoin="round"/> <path d="M155.244 98.2794C163.981 84.2157 170.869 68.8044 175.535 52.3544" stroke="#FBFBFB" stroke-width="5" stroke-miterlimit="10" stroke-linecap="round" stroke-linejoin="round"/> <path d="M60.8854 173.674C94.369 162.126 123.67 140.864 145.117 112.918" stroke="#FBFBFB" stroke-width="5" stroke-miterlimit="10" stroke-linecap="round" stroke-linejoin="round"/> <path d="M104.453 52.8074C99.5419 52.8074 95.5466 48.7926 95.5466 43.857C95.5466 38.9219 99.5419 34.907 104.453 34.907C109.365 34.907 113.36 38.9219 113.36 43.857C113.36 48.7926 109.365 52.8074 104.453 52.8074Z" stroke="#FBFBFB" stroke-width="5" stroke-miterlimit="10" stroke-linecap="round" stroke-linejoin="round"/> <path d="M69.792 92.133C64.8807 92.133 60.8853 88.1178 60.8853 83.1826C60.8853 78.2474 64.8807 74.2322 69.792 74.2322C74.7033 74.2322 78.6986 78.2474 78.6986 83.1826C78.6986 88.1178 74.7033 92.133 69.792 92.133Z" stroke="#FBFBFB" stroke-width="5" stroke-miterlimit="10" stroke-linecap="round" stroke-linejoin="round"/> <path d="M150.796 114.979C145.885 114.979 141.889 110.964 141.889 106.029C141.889 101.094 145.885 97.0784 150.796 97.0784C155.707 97.0784 159.703 101.094 159.703 106.029C159.703 110.964 155.707 114.979 150.796 114.979Z" stroke="#FBFBFB" stroke-width="5" stroke-miterlimit="10" stroke-linecap="round" stroke-linejoin="round"/> <path d="M52.4326 185.306C47.5213 185.306 43.526 181.291 43.526 176.356C43.526 171.42 47.5213 167.406 52.4326 167.406C57.3439 167.406 61.3396 171.42 61.3396 176.356C61.3396 181.291 57.3439 185.306 52.4326 185.306Z" stroke="#FBFBFB" stroke-width="5" stroke-miterlimit="10" stroke-linecap="round" stroke-linejoin="round"/> <path d="M156.989 185.815C152.077 185.815 148.082 181.8 148.082 176.865C148.082 171.93 152.077 167.914 156.989 167.914C161.9 167.914 165.896 171.93 165.896 176.865C165.896 181.8 161.9 185.815 156.989 185.815Z" stroke="#FBFBFB" stroke-width="5" stroke-miterlimit="10" stroke-linecap="round" stroke-linejoin="round"/> <path d="M177.755 52.3542C172.844 52.3542 168.848 48.339 168.848 43.4039C168.848 38.4687 172.844 34.4535 177.755 34.4535C182.666 34.4535 186.662 38.4687 186.662 43.4039C186.662 48.339 182.666 52.3542 177.755 52.3542Z" stroke="#FBFBFB" stroke-width="5" stroke-miterlimit="10" stroke-linecap="round" stroke-linejoin="round"/> <path d="M155.144 31.3362C150.232 31.3362 146.237 27.3214 146.237 22.3859C146.237 17.4507 150.232 13.4359 155.144 13.4359C160.055 13.4359 164.051 17.4507 164.051 22.3859C164.051 27.3214 160.055 31.3362 155.144 31.3362Z" stroke="#FBFBFB" stroke-width="5" stroke-miterlimit="10" stroke-linecap="round" stroke-linejoin="round"/> <path d="M52.4326 31.3362C47.5213 31.3362 43.526 27.3214 43.526 22.3859C43.526 17.4507 47.5213 13.4359 52.4326 13.4359C57.3439 13.4359 61.3396 17.4507 61.3396 22.3859C61.3396 27.3214 57.3439 31.3362 52.4326 31.3362Z" stroke="#FBFBFB" stroke-width="5" stroke-miterlimit="10" stroke-linecap="round" stroke-linejoin="round"/> <path d="M11.8364 96.7444C6.92512 96.7444 2.92981 92.7295 2.92981 87.794C2.92981 82.8588 6.92512 78.844 11.8364 78.844C16.7478 78.844 20.7431 82.8588 20.7431 87.794C20.7431 92.7295 16.7478 96.7444 11.8364 96.7444Z" stroke="#FBFBFB" stroke-width="5" stroke-miterlimit="10" stroke-linecap="round" stroke-linejoin="round"/> </g> </svg>