<svg viewBox="0 0 200 200" fill="none" xmlns="http://www.w3.org/2000/svg"> <path d="M102.853 175.301L106.009 165.722" stroke="#FBFBFB" stroke-width="5" stroke-miterlimit="10" stroke-linecap="round" stroke-linejoin="round"/> <path d="M65.3046 100.854L74.8718 104.01" stroke="#FBFBFB" stroke-width="5" stroke-miterlimit="10" stroke-linecap="round" stroke-linejoin="round"/> <path d="M94.7369 66.6596L99.288 75.6623" stroke="#FBFBFB" stroke-width="5" stroke-miterlimit="10" stroke-linecap="round" stroke-linejoin="round"/> <path d="M147.855 171.935L143.315 162.932" stroke="#FBFBFB" stroke-width="5" stroke-miterlimit="10" stroke-linecap="round" stroke-linejoin="round"/> <path d="M68.6596 145.857L77.6623 141.317" stroke="#FBFBFB" stroke-width="5" stroke-miterlimit="10" stroke-linecap="round" stroke-linejoin="round"/> <mask id="mask0_14_160" style="mask-type:luminance" maskUnits="userSpaceOnUse" x="0" y="0" width="200" height="200"> <path d="M0 1.52588e-05H200V200H0V1.52588e-05Z" fill="white"/> </mask> <g mask="url(#mask0_14_160)"> <path d="M110.893 44.3024C121.999 42.7633 133.604 43.6711 144.965 47.4141C184.728 60.5137 206.343 103.357 193.243 143.111C180.155 182.864 137.313 204.479 97.5495 191.391C57.7968 178.302 36.1823 135.448 49.2816 95.6938C57.0995 71.9419 75.5472 54.6669 97.6046 47.3919" stroke="#FBFBFB" stroke-width="5" stroke-miterlimit="10" stroke-linecap="round" stroke-linejoin="round"/> <path d="M130.569 44.1696L136.616 25.843M164.509 35.0337L158.474 53.3602" stroke="#FBFBFB" stroke-width="5" stroke-miterlimit="10" stroke-linecap="round" stroke-linejoin="round"/> <path d="M150.734 9.80877L136.15 5.00252C133.892 4.26112 131.433 5.50135 130.691 7.75994L127.248 18.2135C126.506 20.4724 127.735 22.9306 129.994 23.6724L171.119 37.2154C173.378 37.9576 175.837 36.7174 176.578 34.4584L180.022 24.0049C180.764 21.7459 179.524 19.2877 177.265 18.5455L163.235 13.9279" stroke="#FBFBFB" stroke-width="5" stroke-miterlimit="10" stroke-linecap="round" stroke-linejoin="round"/> <path d="M39.3604 53.9143H2.92957M83.11 53.9143H58.8823" stroke="#FBFBFB" stroke-width="5" stroke-miterlimit="10" stroke-linecap="round" stroke-linejoin="round"/> <path d="M42.1841 74.4221H14.645" stroke="#FBFBFB" stroke-width="5" stroke-miterlimit="10" stroke-linecap="round" stroke-linejoin="round"/> <path d="M23.5367 115.427H2.92963" stroke="#FBFBFB" stroke-width="5" stroke-miterlimit="10" stroke-linecap="round" stroke-linejoin="round"/> <path d="M46.1815 135.935H12.3975" stroke="#FBFBFB" stroke-width="5" stroke-miterlimit="10" stroke-linecap="round" stroke-linejoin="round"/> <path d="M35.252 156.443H20.9016" stroke="#FBFBFB" stroke-width="5" stroke-miterlimit="10" stroke-linecap="round" stroke-linejoin="round"/> <path d="M69.7559 176.951H38.1868" stroke="#FBFBFB" stroke-width="5" stroke-miterlimit="10" stroke-linecap="round" stroke-linejoin="round"/> <path d="M177.398 137.773L130.558 122.348" stroke="#FBFBFB" stroke-width="5" stroke-miterlimit="10" stroke-linecap="round" stroke-linejoin="round"/> <path d="M139.738 63.3042L124.347 110.034" stroke="#FBFBFB" stroke-width="5" stroke-miterlimit="10" stroke-linecap="round" stroke-linejoin="round"/> <path d="M92.0349 93.6012L113.306 112.991" stroke="#FBFBFB" stroke-width="5" stroke-miterlimit="10" stroke-linecap="round" stroke-linejoin="round"/> <path d="M122.508 129.081L123.793 140.076" stroke="#FBFBFB" stroke-width="5" stroke-miterlimit="10" stroke-linecap="round" stroke-linejoin="round"/> <path d="M49.7578 94.9299H26.9918" stroke="#FBFBFB" stroke-width="5" stroke-miterlimit="10" stroke-linecap="round" stroke-linejoin="round"/> <path d="M124.347 110.034C129.463 111.717 132.241 117.232 130.558 122.347C128.875 127.464 123.361 130.243 118.245 128.56C113.129 126.877 110.35 121.362 112.033 116.246C113.716 111.131 119.23 108.351 124.347 110.034Z" stroke="#FBFBFB" stroke-width="5" stroke-miterlimit="10" stroke-linecap="round" stroke-linejoin="round"/> <path d="M139.738 63.3042C108.756 53.0944 75.3701 69.9483 65.1608 100.932C54.9623 131.915 71.8045 165.301 102.787 175.5C133.77 185.71 167.155 168.867 177.365 137.884L177.398 137.773C187.53 106.823 170.687 73.4921 139.738 63.3042Z" stroke="#FBFBFB" stroke-width="5" stroke-miterlimit="10" stroke-linecap="round" stroke-linejoin="round"/> </g> </svg>