<svg width="128" height="86" viewBox="0 0 128 86" fill="none" xmlns="http://www.w3.org/2000/svg">
<mask id="path-1-inside-1_14_124" fill="white">
<path d="M103.325 54.9521C105.554 49.9478 106.704 44.5326 106.699 39.0572C106.695 33.5819 105.536 28.1685 103.299 23.1678C101.062 18.1672 97.7953 13.6909 93.7115 10.0289C89.6277 6.36686 84.8176 3.6009 79.5928 1.91019C74.3681 0.219469 68.8453 -0.358281 63.3822 0.214369C57.9191 0.787019 52.6377 2.49729 47.8801 5.23438C43.1225 7.97147 38.9949 11.6743 35.7647 16.103C32.5345 20.5316 30.2738 25.5873 29.129 30.9425L30.2231 31.1749C31.3352 25.9725 33.5315 21.061 36.6695 16.7587C39.8076 12.4563 43.8175 8.85913 48.4393 6.20013C53.0612 3.54112 58.192 1.87963 63.4992 1.32332C68.8064 0.767006 74.1717 1.32827 79.2474 2.97076C84.3231 4.61325 88.996 7.30031 92.9633 10.8578C96.9306 14.4154 100.104 18.764 102.277 23.622C104.451 28.48 105.576 33.7389 105.581 39.0581C105.585 44.3773 104.468 49.6381 102.302 54.4995L103.325 54.9521Z"/>
</mask>
<path d="M103.325 54.9521C105.554 49.9478 106.704 44.5326 106.699 39.0572C106.695 33.5819 105.536 28.1685 103.299 23.1678C101.062 18.1672 97.7953 13.6909 93.7115 10.0289C89.6277 6.36686 84.8176 3.6009 79.5928 1.91019C74.3681 0.219469 68.8453 -0.358281 63.3822 0.214369C57.9191 0.787019 52.6377 2.49729 47.8801 5.23438C43.1225 7.97147 38.9949 11.6743 35.7647 16.103C32.5345 20.5316 30.2738 25.5873 29.129 30.9425L30.2231 31.1749C31.3352 25.9725 33.5315 21.061 36.6695 16.7587C39.8076 12.4563 43.8175 8.85913 48.4393 6.20013C53.0612 3.54112 58.192 1.87963 63.4992 1.32332C68.8064 0.767006 74.1717 1.32827 79.2474 2.97076C84.3231 4.61325 88.996 7.30031 92.9633 10.8578C96.9306 14.4154 100.104 18.764 102.277 23.622C104.451 28.48 105.576 33.7389 105.581 39.0581C105.585 44.3773 104.468 49.6381 102.302 54.4995L103.325 54.9521Z" fill="#FEBD19" stroke="#FEBD19" stroke-width="4" mask="url(#path-1-inside-1_14_124)"/>
<rect x="5.5" y="54.6176" width="116.647" height="24.8824" stroke="#FEBD19"/>
<path d="M5.39215 71.3366L29.5752 71.9881L45.915 72.6396L71.4052 73.9425L92.3203 75.5712L102.778 76.8742L108.987 77.8514L117.81 79.8058" stroke="#FEBD19" stroke-width="0.5"/>
<path d="M5.71893 57.9814L45.915 59.9358L79.2483 61.5645L111.274 64.4961L122.059 66.1248" stroke="#FEBD19" stroke-width="0.5"/>
<path d="M6.04572 64.4962L30.2287 65.1476L52.1242 65.4734L73.0392 66.7763L93.3006 68.405L103.758 69.708L110.948 71.0109L116.83 72.6396L122.059 74.594" stroke="#FEBD19" stroke-width="0.5"/>
<path d="M11.0245 76.5484C11.0245 76.9493 10.6983 77.2757 10.2941 77.2757C9.88996 77.2757 9.56372 76.9493 9.56372 76.5484C9.56372 76.1476 9.88996 75.8212 10.2941 75.8212C10.6983 75.8212 11.0245 76.1476 11.0245 76.5484Z" stroke="#FEBD19" stroke-width="0.5"/>
<path d="M119.521 58.3071C119.521 58.708 119.195 59.0343 118.791 59.0343C118.387 59.0343 118.06 58.708 118.06 58.3071C118.06 57.9062 118.387 57.5799 118.791 57.5799C119.195 57.5799 119.521 57.9062 119.521 58.3071Z" stroke="#FEBD19" stroke-width="0.5"/>
<path d="M116.907 59.2843C116.907 59.5053 116.727 59.6858 116.503 59.6858C116.28 59.6858 116.1 59.5053 116.1 59.2843C116.1 59.0634 116.28 58.8828 116.503 58.8828C116.727 58.8828 116.907 59.0634 116.907 59.2843Z" stroke="#FEBD19" stroke-width="0.5"/>
<g filter="url(#filter0_d_14_124)">
<path d="M12.914 71L14.157 64.752H11.693L11.99 63.3H18.7L18.403 64.752H15.95L14.696 71H12.914ZM20.0802 71.088C19.6256 71.088 19.2039 70.9853 18.8152 70.78C18.4266 70.5673 18.1149 70.263 17.8802 69.867C17.6456 69.471 17.5282 68.9943 17.5282 68.437C17.5282 67.9383 17.6089 67.48 17.7702 67.062C17.9389 66.644 18.1736 66.281 18.4742 65.973C18.7749 65.665 19.1232 65.4267 19.5192 65.258C19.9152 65.082 20.3406 64.994 20.7952 64.994C21.2866 64.994 21.7082 65.0857 22.0602 65.269C22.4122 65.4523 22.6726 65.7383 22.8412 66.127C23.0172 66.5083 23.0796 67.0033 23.0282 67.612C22.9916 68.3087 22.8486 68.921 22.5992 69.449C22.3499 69.9697 22.0126 70.373 21.5872 70.659C21.1692 70.945 20.6669 71.088 20.0802 71.088ZM20.6082 69.669C20.9456 69.669 21.2426 69.5883 21.4992 69.427C21.7632 69.2583 21.9686 69.031 22.1152 68.745C22.2692 68.4517 22.3462 68.1107 22.3462 67.722C22.3462 67.3187 22.2252 66.9997 21.9832 66.765C21.7486 66.5303 21.4186 66.413 20.9932 66.413C20.6632 66.413 20.3662 66.4973 20.1022 66.666C19.8382 66.8273 19.6292 67.0547 19.4752 67.348C19.3286 67.634 19.2552 67.9713 19.2552 68.36C19.2552 68.7633 19.3726 69.0823 19.6072 69.317C19.8492 69.5517 20.1829 69.669 20.6082 69.669ZM21.7852 71L22.0162 69.823L22.4012 68.063L22.6322 66.303L22.8742 65.082H24.5902L23.4132 71H21.7852ZM24.21 71L27.62 67.502L27.4 68.371L25.596 65.082H27.378L28.61 67.359L27.818 67.348L29.963 65.082H31.855L28.599 68.47L28.742 67.557L30.656 71H28.841L27.576 68.646H28.379L26.168 71H24.21ZM31.544 71L32.721 65.082H34.426L33.249 71H31.544ZM33.865 64.257C33.5643 64.257 33.3223 64.1727 33.139 64.004C32.9556 63.828 32.864 63.6153 32.864 63.366C32.864 63.0727 32.9666 62.8307 33.172 62.64C33.3846 62.442 33.6596 62.343 33.997 62.343C34.2976 62.343 34.5396 62.4273 34.723 62.596C34.9136 62.7573 35.009 62.959 35.009 63.201C35.009 63.5163 34.9026 63.773 34.69 63.971C34.4846 64.1617 34.2096 64.257 33.865 64.257ZM40.652 71.088C40.1974 71.088 39.7757 70.9853 39.387 70.78C38.9984 70.5673 38.6867 70.263 38.452 69.867C38.2174 69.471 38.1 68.9943 38.1 68.437C38.1 67.9383 38.1807 67.48 38.342 67.062C38.5107 66.644 38.7454 66.281 39.046 65.973C39.3467 65.665 39.695 65.4267 40.091 65.258C40.487 65.082 40.9124 64.994 41.367 64.994C41.829 64.994 42.2287 65.0747 42.566 65.236C42.9034 65.3973 43.1637 65.6467 43.347 65.984C43.5377 66.314 43.633 66.732 43.633 67.238C43.633 67.7807 43.567 68.2867 43.435 68.756C43.3104 69.218 43.1197 69.625 42.863 69.977C42.6064 70.3217 42.291 70.593 41.917 70.791C41.5504 70.989 41.1287 71.088 40.652 71.088ZM41.18 69.669C41.5174 69.669 41.8144 69.5883 42.071 69.427C42.335 69.2583 42.5404 69.031 42.687 68.745C42.841 68.4517 42.918 68.1107 42.918 67.722C42.918 67.3187 42.797 66.9997 42.555 66.765C42.3204 66.5303 41.9904 66.413 41.565 66.413C41.235 66.413 40.938 66.4973 40.674 66.666C40.41 66.8273 40.201 67.0547 40.047 67.348C39.9004 67.634 39.827 67.9713 39.827 68.36C39.827 68.7633 39.9444 69.0823 40.179 69.317C40.421 69.5517 40.7547 69.669 41.18 69.669ZM42.346 71L42.588 69.823L42.962 68.063L43.193 66.303L43.886 62.838H45.602L43.974 71H42.346ZM48.7193 71.088C48.1033 71.088 47.5679 70.978 47.1133 70.758C46.6659 70.538 46.3176 70.23 46.0683 69.834C45.8189 69.438 45.6943 68.9723 45.6943 68.437C45.6943 67.777 45.8409 67.1903 46.1343 66.677C46.4349 66.1563 46.8456 65.7457 47.3663 65.445C47.8943 65.1443 48.4993 64.994 49.1813 64.994C49.7606 64.994 50.2593 65.104 50.6773 65.324C51.0953 65.5367 51.4179 65.8373 51.6453 66.226C51.8799 66.6073 51.9973 67.0657 51.9973 67.601C51.9973 67.755 51.9863 67.909 51.9643 68.063C51.9496 68.217 51.9276 68.3637 51.8983 68.503H47.0033L47.1793 67.502H51.0953L50.3913 67.81C50.4499 67.48 50.4316 67.205 50.3363 66.985C50.2409 66.7577 50.0869 66.5853 49.8743 66.468C49.6616 66.3433 49.4049 66.281 49.1043 66.281C48.7303 66.281 48.4113 66.3727 48.1473 66.556C47.8906 66.732 47.6963 66.9777 47.5643 67.293C47.4323 67.6083 47.3663 67.964 47.3663 68.36C47.3663 68.8147 47.4909 69.1557 47.7403 69.383C47.9969 69.603 48.3819 69.713 48.8953 69.713C49.1959 69.713 49.4856 69.6653 49.7643 69.57C50.0429 69.4747 50.2813 69.339 50.4793 69.163L51.1943 70.296C50.8496 70.5673 50.4609 70.769 50.0283 70.901C49.6029 71.0257 49.1666 71.088 48.7193 71.088ZM55.5957 71L57.2237 62.838H58.9397L57.3117 71H55.5957ZM61.5773 71.088C61.1226 71.088 60.701 70.9853 60.3123 70.78C59.9236 70.5673 59.612 70.263 59.3773 69.867C59.1426 69.471 59.0253 68.9943 59.0253 68.437C59.0253 67.9383 59.106 67.48 59.2673 67.062C59.436 66.644 59.6706 66.281 59.9713 65.973C60.272 65.665 60.6203 65.4267 61.0163 65.258C61.4123 65.082 61.8376 64.994 62.2923 64.994C62.7836 64.994 63.2053 65.0857 63.5573 65.269C63.9093 65.4523 64.1696 65.7383 64.3383 66.127C64.5143 66.5083 64.5766 67.0033 64.5253 67.612C64.4886 68.3087 64.3456 68.921 64.0963 69.449C63.847 69.9697 63.5096 70.373 63.0843 70.659C62.6663 70.945 62.164 71.088 61.5773 71.088ZM62.1053 69.669C62.4426 69.669 62.7396 69.5883 62.9963 69.427C63.2603 69.2583 63.4656 69.031 63.6123 68.745C63.7663 68.4517 63.8433 68.1107 63.8433 67.722C63.8433 67.3187 63.7223 66.9997 63.4803 66.765C63.2456 66.5303 62.9156 66.413 62.4903 66.413C62.1603 66.413 61.8633 66.4973 61.5993 66.666C61.3353 66.8273 61.1263 67.0547 60.9723 67.348C60.8256 67.634 60.7523 67.9713 60.7523 68.36C60.7523 68.7633 60.8696 69.0823 61.1043 69.317C61.3463 69.5517 61.68 69.669 62.1053 69.669ZM63.2823 71L63.5133 69.823L63.8983 68.063L64.1293 66.303L64.3713 65.082H66.0873L64.9103 71H63.2823ZM69.7243 71L71.2643 63.3H74.3773C75.3379 63.3 76.0786 63.5127 76.5993 63.938C77.1273 64.356 77.3913 64.9427 77.3913 65.698C77.3913 66.3433 77.2409 66.908 76.9403 67.392C76.6396 67.8687 76.2069 68.2353 75.6423 68.492C75.0849 68.7487 74.4213 68.877 73.6513 68.877H71.1543L72.1003 68.063L71.5173 71H69.7243ZM72.0563 68.272L71.4293 67.425H73.7283C74.3149 67.425 74.7696 67.293 75.0923 67.029C75.4223 66.7577 75.5873 66.3653 75.5873 65.852C75.5873 65.478 75.4626 65.203 75.2133 65.027C74.9639 64.8437 74.6119 64.752 74.1573 64.752H71.9903L72.9363 63.883L72.0563 68.272ZM77.6709 71L79.2989 62.838H81.0149L79.3869 71H77.6709ZM83.6525 71.088C83.1978 71.088 82.7762 70.9853 82.3875 70.78C81.9988 70.5673 81.6872 70.263 81.4525 69.867C81.2178 69.471 81.1005 68.9943 81.1005 68.437C81.1005 67.9383 81.1812 67.48 81.3425 67.062C81.5112 66.644 81.7458 66.281 82.0465 65.973C82.3472 65.665 82.6955 65.4267 83.0915 65.258C83.4875 65.082 83.9128 64.994 84.3675 64.994C84.8588 64.994 85.2805 65.0857 85.6325 65.269C85.9845 65.4523 86.2448 65.7383 86.4135 66.127C86.5895 66.5083 86.6518 67.0033 86.6005 67.612C86.5638 68.3087 86.4208 68.921 86.1715 69.449C85.9222 69.9697 85.5848 70.373 85.1595 70.659C84.7415 70.945 84.2392 71.088 83.6525 71.088ZM84.1805 69.669C84.5178 69.669 84.8148 69.5883 85.0715 69.427C85.3355 69.2583 85.5408 69.031 85.6875 68.745C85.8415 68.4517 85.9185 68.1107 85.9185 67.722C85.9185 67.3187 85.7975 66.9997 85.5555 66.765C85.3208 66.5303 84.9908 66.413 84.5655 66.413C84.2355 66.413 83.9385 66.4973 83.6745 66.666C83.4105 66.8273 83.2015 67.0547 83.0475 67.348C82.9008 67.634 82.8275 67.9713 82.8275 68.36C82.8275 68.7633 82.9448 69.0823 83.1795 69.317C83.4215 69.5517 83.7552 69.669 84.1805 69.669ZM85.3575 71L85.5885 69.823L85.9735 68.063L86.2045 66.303L86.4465 65.082H88.1625L86.9855 71H85.3575ZM93.1942 64.994C93.7002 64.994 94.1292 65.1003 94.4812 65.313C94.8332 65.5183 95.0826 65.8227 95.2292 66.226C95.3759 66.6293 95.3906 67.128 95.2732 67.722L94.6132 71H92.8972L93.5352 67.832C93.6232 67.3993 93.5866 67.0657 93.4252 66.831C93.2712 66.5963 92.9852 66.479 92.5672 66.479C92.1346 66.479 91.7716 66.6037 91.4782 66.853C91.1922 67.1023 90.9942 67.4837 90.8842 67.997L90.2902 71H88.5742L89.7512 65.082H91.3792L91.0382 66.754L90.7962 66.248C91.0822 65.8153 91.4342 65.5 91.8522 65.302C92.2776 65.0967 92.7249 64.994 93.1942 64.994ZM99.3252 71.088C98.7165 71.088 98.1849 70.978 97.7302 70.758C97.2829 70.538 96.9345 70.23 96.6852 69.834C96.4359 69.438 96.3112 68.9723 96.3112 68.437C96.3112 67.777 96.4652 67.1903 96.7732 66.677C97.0812 66.1563 97.5065 65.7457 98.0492 65.445C98.5919 65.1443 99.2152 64.994 99.9192 64.994C100.55 64.994 101.096 65.126 101.558 65.39C102.02 65.6467 102.361 66.0133 102.581 66.49L101.129 67.216C101.005 66.9373 100.829 66.7357 100.601 66.611C100.381 66.479 100.117 66.413 99.8092 66.413C99.4719 66.413 99.1712 66.4973 98.9072 66.666C98.6432 66.8273 98.4342 67.0547 98.2802 67.348C98.1262 67.634 98.0492 67.9677 98.0492 68.349C98.0492 68.7523 98.1665 69.075 98.4012 69.317C98.6432 69.5517 98.9842 69.669 99.4242 69.669C99.7249 69.669 99.9999 69.6067 100.249 69.482C100.499 69.35 100.708 69.1483 100.876 68.877L102.141 69.669C101.863 70.1163 101.474 70.4647 100.975 70.714C100.484 70.9633 99.9339 71.088 99.3252 71.088ZM107.288 64.994C107.787 64.994 108.212 65.1003 108.564 65.313C108.916 65.5183 109.165 65.8227 109.312 66.226C109.466 66.6293 109.484 67.128 109.367 67.722L108.707 71H106.991L107.629 67.832C107.717 67.3993 107.68 67.0657 107.519 66.831C107.365 66.5963 107.079 66.479 106.661 66.479C106.228 66.479 105.865 66.6037 105.572 66.853C105.286 67.1023 105.088 67.4837 104.978 67.997L104.384 71H102.668L104.296 62.838H106.012L105.231 66.754L104.89 66.248C105.176 65.8153 105.528 65.5 105.946 65.302C106.371 65.0967 106.819 64.994 107.288 64.994ZM113.441 71.088C112.825 71.088 112.29 70.978 111.835 70.758C111.388 70.538 111.039 70.23 110.79 69.834C110.541 69.438 110.416 68.9723 110.416 68.437C110.416 67.777 110.563 67.1903 110.856 66.677C111.157 66.1563 111.567 65.7457 112.088 65.445C112.616 65.1443 113.221 64.994 113.903 64.994C114.482 64.994 114.981 65.104 115.399 65.324C115.817 65.5367 116.14 65.8373 116.367 66.226C116.602 66.6073 116.719 67.0657 116.719 67.601C116.719 67.755 116.708 67.909 116.686 68.063C116.671 68.217 116.649 68.3637 116.62 68.503H111.725L111.901 67.502H115.817L115.113 67.81C115.172 67.48 115.153 67.205 115.058 66.985C114.963 66.7577 114.809 66.5853 114.596 66.468C114.383 66.3433 114.127 66.281 113.826 66.281C113.452 66.281 113.133 66.3727 112.869 66.556C112.612 66.732 112.418 66.9777 112.286 67.293C112.154 67.6083 112.088 67.964 112.088 68.36C112.088 68.8147 112.213 69.1557 112.462 69.383C112.719 69.603 113.104 69.713 113.617 69.713C113.918 69.713 114.207 69.6653 114.486 69.57C114.765 69.4747 115.003 69.339 115.201 69.163L115.916 70.296C115.571 70.5673 115.183 70.769 114.75 70.901C114.325 71.0257 113.888 71.088 113.441 71.088Z" fill="#FEBD19"/>
</g>
<path d="M97.1197 49.2317C97.3835 48.1271 97.5418 46.707 97.0141 45.6551C97.0141 45.4973 96.9614 45.3921 96.8031 45.3395C96.2754 44.5505 95.4839 44.1298 94.5868 43.8142C90.7875 42.3415 89.2572 42.7622 88.3074 41.8155C87.6214 41.1843 87.0937 40.185 86.5661 39.4486C85.5635 37.8181 85.3524 38.0811 82.3446 38.0285V37.1869C82.9778 37.1869 83.6638 37.1343 84.297 37.1343C84.5081 37.1343 84.6664 36.924 84.6664 36.7136C84.6664 36.5558 84.5081 36.398 84.3498 36.3454C84.1387 36.0824 83.9804 35.7142 83.8749 35.346C83.7166 34.8201 83.5055 34.2415 82.9778 33.8733C82.2391 33.2948 81.7114 33.4525 76.9622 33.4525C75.5903 33.4525 75.0098 33.6103 73.7434 35.609C73.4795 36.0298 73.2685 36.398 73.0046 36.661C72.5297 36.7662 72.6353 37.4499 73.1102 37.4499H75.1154C75.1154 37.5025 75.1154 38.3441 75.1154 38.2915C72.688 38.4493 72.0548 38.6071 70.9994 39.1856C69.9441 39.659 69.3109 40.7635 68.6776 41.8155C68.3083 42.3941 68.0444 42.8148 67.8334 43.2356C67.6223 43.709 67.2001 44.0246 66.6725 44.1824C66.1448 44.3402 65.9337 44.4453 65.3532 44.5505C64.9839 44.6031 64.5617 44.7083 64.1923 44.9713C62.9259 45.8655 62.8204 49.1791 64.9839 51.0726C65.406 51.4408 65.8282 51.9141 66.4614 51.7563C66.8835 51.6512 67.0946 51.3356 67.3057 51.02C67.1474 52.2823 67.675 53.4921 68.6249 54.1758C68.5721 54.1758 68.5721 54.1758 68.5193 54.1758C68.3083 54.1758 67.9917 54.1758 67.8861 54.3862C67.8334 54.544 67.8861 54.7018 67.9917 54.807C68.0972 54.9122 68.2555 54.9648 68.4138 55.0174C69.2581 55.2804 70.2079 55.2804 71.105 55.1226C71.6854 55.0174 72.2659 54.7544 72.5825 54.281C73.4795 53.6498 74.06 52.5979 74.0072 51.4408C74.06 51.6512 74.1128 51.8615 74.1655 52.1245C74.2183 52.2823 74.3766 52.4401 74.5349 52.4401C76.0652 52.4927 77.701 52.5453 79.284 52.5453C82.8723 52.5453 86.5133 52.3875 89.2045 52.2823C89.3628 52.2823 89.5211 52.1771 89.5738 51.9667C89.5738 51.9141 89.5738 51.9141 89.5738 51.9141C89.6794 52.9135 90.2598 53.8076 91.1041 54.3336C90.5764 54.2284 90.4709 54.1758 90.3126 54.1758C90.1543 54.2284 90.0487 54.3336 90.0487 54.4914C90.0487 54.6492 90.2071 54.7544 90.3654 54.807C91.4735 55.2804 93.0565 55.2278 94.2174 54.5966C95.6949 53.9654 96.5392 52.3875 96.2226 50.757C96.6448 50.5992 96.9086 50.1258 97.1197 49.2317ZM96.3282 46.0759C96.5392 46.5492 96.592 47.0752 96.5392 47.6538C96.1171 47.7064 95.6422 47.2856 95.6422 46.8648C95.6422 46.4966 95.906 46.1285 96.3282 46.0759ZM75.9596 34.2941C76.2763 34.1889 76.6456 34.1889 77.015 34.1889C81.5003 34.1889 82.028 34.0837 82.5557 34.4519C82.8723 34.7149 83.0306 35.1357 83.1889 35.5564C83.2944 35.8194 83.3472 36.0824 83.5055 36.2928C80.3394 36.398 77.2261 36.5032 74.1128 36.5032C74.6404 35.6616 75.2209 34.5571 75.9596 34.2941ZM75.9596 37.2921C77.8065 37.2395 79.7062 37.2395 81.6058 37.1343V37.9759C80.4449 37.9759 77.701 37.9759 75.9596 38.0811C75.9596 37.8707 75.9596 37.3973 75.9596 37.2921ZM68.0444 51.4934C68.0444 50.0732 69.2053 48.9161 70.6301 48.9161C72.0548 48.9161 73.2157 50.0732 73.2157 51.4934C73.2157 52.9135 72.0548 54.0706 70.6301 54.0706C69.2053 54.0706 68.0444 52.9135 68.0444 51.4934ZM72.9519 48.6531C71.7382 47.9168 70.2079 47.759 68.9415 48.2323C68.15 48.5479 67.464 49.1265 66.9363 50.0206C66.7252 50.3362 66.5141 50.9674 66.3031 51.02C66.092 51.0726 65.8809 50.8096 65.5643 50.494C63.7702 48.9161 63.8757 46.2336 64.72 45.6551C65.0894 45.3921 65.4588 45.4447 66.4086 45.1291C66.5669 45.0765 66.7252 45.0239 66.9363 44.9713C67.675 44.7609 68.3083 44.2876 68.6249 43.6038C68.8359 43.1304 69.1526 42.7096 69.7858 41.7103C70.2607 40.9739 70.7884 40.2376 71.5799 39.7642C72.1603 39.4486 72.5825 39.2908 73.0046 39.2382C74.5877 38.9752 76.2235 38.9226 77.8065 38.8701C77.6482 41.0791 77.1733 49.5473 77.5955 51.7563C76.6984 51.7563 75.8541 51.7038 74.9571 51.7038C74.5349 50.1784 73.9545 49.2317 72.9519 48.6531ZM90.3654 51.3882C90.3654 49.968 91.4735 48.8635 92.8982 48.8109C93.4787 48.8109 93.9536 49.0213 93.9008 48.9687C94.7451 49.2317 95.5366 50.1784 95.5366 51.3356C95.5366 52.7557 94.3757 53.9128 92.951 53.9128C91.5263 53.9654 90.3654 52.8083 90.3654 51.3882ZM96.1171 49.8103C95.8005 49.4421 95.5894 49.1265 95.2728 48.8635C94.5868 48.2849 93.2676 47.8116 92.0539 48.0746C90.5237 48.3901 89.4155 49.5473 88.8878 51.3882C85.9328 51.546 82.0808 51.7038 78.2814 51.6512C77.9121 50.2836 78.2287 42.9726 78.4925 38.7123C80.2866 38.6597 82.1335 38.6597 84.5609 38.7123C85.0885 38.7649 85.1413 38.7649 85.3524 38.9226C85.8273 39.2908 86.9882 41.8681 88.3074 42.6044C88.1491 42.8148 88.2546 42.6044 88.2546 47.8116C88.2546 48.022 88.4129 48.2323 88.6768 48.2323C88.9406 48.2323 89.0989 48.0746 89.0989 47.8116V42.92C89.5211 43.0778 89.9432 43.1304 90.3654 43.2356C91.6846 43.4986 95.009 44.3402 95.9588 45.2343C94.2702 45.9707 94.9034 48.2323 96.5392 48.2849C96.4337 48.8109 96.2754 49.4421 96.1171 49.8103Z" fill="#FEBD19"/>
<path d="M84.7191 40.0272C84.6136 39.8694 84.4025 39.8168 84.2442 39.8168L80.1283 39.7116C79.7589 39.7116 79.4423 39.9746 79.4423 40.3428C79.3896 41.2895 79.3896 42.92 79.3368 43.8668C79.3368 44.0246 79.3896 44.235 79.5479 44.3402C79.7062 44.4979 79.8645 44.5505 80.0228 44.5505C82.3973 44.4979 84.4025 44.4979 86.5133 44.4453C87.0409 44.4453 87.3576 43.8668 87.0409 43.446C86.4077 42.3941 85.5107 40.8687 84.7191 40.0272ZM80.1811 43.7616C80.2338 42.8674 80.2339 41.3947 80.2339 40.5006L84.1387 40.6058C84.8247 41.3947 85.6162 42.7096 86.2494 43.6564C84.0332 43.709 82.6612 43.709 80.1811 43.7616Z" fill="#FEBD19"/>
<path d="M75.9069 39.8168C73.6378 39.7116 71.6854 41.8155 70.7884 43.0778C70.419 43.6038 70.7884 44.3401 71.4216 44.3401C72.8991 44.3401 74.3766 44.3927 75.8013 44.3401C76.2235 44.3401 76.5401 44.0246 76.5929 43.6038C76.6456 42.7622 76.6456 41.4999 76.6984 40.6583C76.6984 40.2376 76.329 39.8694 75.9069 39.8168ZM75.7486 43.5512C74.3766 43.6038 72.9519 43.6038 71.4216 43.5512C72.4769 42.1311 74.1128 40.5006 75.9069 40.6057C75.8013 41.4999 75.8013 42.7096 75.7486 43.5512Z" fill="#FEBD19"/>
<path d="M94.0063 51.4408C94.0063 50.9674 93.637 50.5992 93.162 50.5992C92.6871 50.5992 92.3177 50.9674 92.3177 51.4408C92.3177 51.9141 92.6871 52.2823 93.162 52.2823C93.5842 52.2823 94.0063 51.9141 94.0063 51.4408Z" fill="#FEBD19"/>
<path d="M70.6301 52.2297C71.105 52.2297 71.4743 51.8615 71.4743 51.3882C71.4743 50.9148 71.105 50.5466 70.6301 50.5466C70.1551 50.5466 69.7858 50.9148 69.7858 51.3882C69.7858 51.8615 70.1551 52.2297 70.6301 52.2297Z" fill="#FEBD19"/>
<path d="M76.5401 35.9246L77.1206 35.346C77.2789 35.1882 77.2789 34.9252 77.1206 34.7675C76.9623 34.6097 76.6984 34.6097 76.5401 34.7675L75.9597 35.346C75.8014 35.5038 75.8014 35.7668 75.9597 35.9246C76.118 36.0824 76.3818 36.0824 76.5401 35.9246Z" fill="#FEBD19"/>
<path d="M78.9147 35.9772L79.4424 35.4512C79.6007 35.2934 79.6007 35.0304 79.4424 34.8726C79.2841 34.7149 79.0202 34.7149 78.8619 34.8726L78.3342 35.3986C78.1759 35.5564 78.1759 35.8194 78.3342 35.9772C78.4925 36.135 78.7564 36.135 78.9147 35.9772Z" fill="#FEBD19"/>
<path d="M81.1309 35.9246C81.2365 35.9246 81.342 35.872 81.3948 35.8194L81.8697 35.346C82.028 35.1882 82.028 34.9252 81.8697 34.7675C81.7114 34.6097 81.4475 34.6097 81.2892 34.7675L80.8143 35.2408C80.6033 35.5038 80.7616 35.9246 81.1309 35.9246Z" fill="#FEBD19"/>
<path d="M81.1837 46.181H79.9173C79.7062 46.181 79.4951 46.3388 79.4951 46.6018C79.4951 46.8648 79.6534 47.0226 79.9173 47.0226H81.1837C81.3948 47.0226 81.6058 46.8648 81.6058 46.6018C81.6058 46.3388 81.4475 46.181 81.1837 46.181Z" fill="#FEBD19"/>
<path d="M93.1093 23.5643C88.3602 21.8286 82.5557 26.2467 83.7166 31.1383C84.0332 32.5058 84.9303 33.7155 86.1439 34.3993C85.3524 35.7142 85.1413 35.6616 85.2469 35.9772C85.1941 36.0824 85.1941 36.2402 85.2996 36.3454C85.4052 36.4506 85.5107 36.5032 85.669 36.5558C86.8827 36.9239 88.3074 36.6084 89.2045 35.7142C89.3628 35.5564 90.3126 35.6616 90.5237 35.6616C94.0064 35.3986 97.2252 33.6103 97.3835 30.1389C97.8057 27.6669 96.0643 24.6688 93.1093 23.5643ZM92.8455 24.3532C94.2702 24.8792 95.4839 25.9311 96.1699 27.2987C97.2252 29.35 96.7503 31.1909 95.0617 32.7688C92.3706 35.2934 89.1517 34.5571 89.2045 34.5571C89.1517 34.5571 89.0989 34.5571 89.0462 34.5571C88.7823 34.6097 87.8325 35.609 86.355 35.5564C86.5133 35.346 87.1993 34.2941 87.2521 34.0311C87.2521 33.9259 87.2521 33.8207 87.1993 33.7681L87.0938 33.6629C85.669 32.7162 84.772 31.1909 84.6664 29.6129C84.4026 25.7208 89.4156 23.0383 92.8455 24.3532Z" fill="#FEBD19"/>
<path d="M85.2996 28.298C85.2996 28.5084 85.4579 28.7188 85.7218 28.7188H86.7244V31.0331C86.7244 31.2435 86.8827 31.4538 87.1465 31.4538C87.4103 31.4538 87.5687 31.2961 87.5687 31.0331V28.6662H88.7296C88.9406 28.6662 89.1517 28.5084 89.1517 28.2454C89.1517 27.9824 88.9934 27.8246 88.7296 27.8246H85.8273C85.5107 27.8772 85.2996 28.035 85.2996 28.298Z" fill="#FEBD19"/>
<path d="M88.5185 30.9805C88.4657 31.1908 88.5185 31.4012 88.7296 31.5064C88.7823 31.5064 88.8351 31.559 88.8879 31.559C89.0462 31.559 89.2045 31.4538 89.2572 31.296C89.31 31.1908 89.3628 31.0331 89.4155 30.9279L90.3126 30.9805H90.3654C90.3654 31.0331 90.4181 31.0857 90.4181 31.1382C90.4709 31.3486 90.682 31.4538 90.8931 31.4012C91.1041 31.3486 91.2097 31.1382 91.1569 30.9279C90.8931 30.0863 90.6292 29.3499 90.1543 28.5084C90.1015 28.3506 89.9432 28.298 89.7849 28.298C89.6266 28.298 89.4683 28.4032 89.4155 28.561C89.2572 29.087 88.9934 29.6655 88.7823 30.2441C88.6768 30.5071 88.624 30.7701 88.5185 30.9805ZM89.8905 29.7181C89.9432 29.8759 89.996 30.0337 90.1015 30.1915L89.7322 30.1389C89.7322 29.9811 89.7849 29.8759 89.8905 29.7181Z" fill="#FEBD19"/>
<path d="M92.3705 29.8233C92.1595 30.1389 91.9484 30.4545 91.7373 30.7701C91.6318 30.9805 91.6846 31.1909 91.8956 31.2961C91.9484 31.3487 92.0539 31.3487 92.1067 31.3487C92.265 31.3487 92.3705 31.2961 92.4233 31.1383C92.5816 30.8753 92.7399 30.6123 92.951 30.3493L93.5314 30.9279C93.5842 30.9805 93.6897 31.0331 93.7953 31.0331C94.1647 31.0331 94.323 30.6123 94.0591 30.3493L93.3731 29.6655C93.5314 29.4552 93.6897 29.2448 93.848 29.0344C94.0064 28.8766 93.9536 28.6136 93.7953 28.4558C93.637 28.298 93.3731 28.3506 93.2148 28.5084C93.0565 28.7188 92.8982 28.8766 92.7927 29.087L92.3178 28.6136C92.1595 28.4558 91.8956 28.4558 91.7373 28.6136C91.579 28.7714 91.579 29.0344 91.7373 29.1922L92.3705 29.8233Z" fill="#FEBD19"/>
<path d="M95.1673 28.7714C94.9562 28.7714 94.7451 28.9292 94.7451 29.1396C94.7451 29.9285 94.7979 30.1915 94.7979 30.9805C94.7979 31.1909 94.9562 31.4012 95.1673 31.4012C95.3783 31.4012 95.5366 31.2435 95.5894 31.0331C95.5894 30.2441 95.5366 29.9811 95.5366 29.1922C95.5366 28.9292 95.3783 28.7714 95.1673 28.7714Z" fill="#FEBD19"/>
<path d="M95.1145 28.6136C95.3255 28.6136 95.5366 28.4558 95.5366 28.1928C95.5366 27.9298 95.3783 27.772 95.1145 27.772C94.8506 27.772 94.6923 27.9298 94.6923 28.1928C94.7451 28.4032 94.9034 28.6136 95.1145 28.6136Z" fill="#FEBD19"/>
<path d="M72.5297 31.4013C72.4242 31.6116 72.4769 31.822 72.688 31.9272C73.9017 32.611 74.0072 33.137 74.3766 33.137C74.6932 33.137 74.9043 32.7162 74.6932 32.4532C74.2183 31.9798 73.6906 31.559 73.1101 31.1909C72.8991 31.1383 72.6352 31.2435 72.5297 31.4013Z" fill="#FEBD19"/>
<path d="M75.3792 32.5584C75.5903 32.5058 75.6958 32.2954 75.643 32.085L75.1154 30.0863C75.0626 29.8759 74.8515 29.7707 74.6404 29.8233C74.4294 29.8759 74.3238 30.0863 74.3766 30.2967L74.9043 32.2954C74.9571 32.5058 75.1681 32.611 75.3792 32.5584Z" fill="#FEBD19"/>
<path d="M76.3818 30.5597L76.0652 31.7694C76.0124 31.9798 76.118 32.1902 76.329 32.2428C76.5401 32.2954 76.7512 32.1902 76.804 31.9798L77.1206 30.7701C77.1733 30.5597 77.0678 30.3493 76.8567 30.2967C76.6457 30.1915 76.4346 30.3493 76.3818 30.5597Z" fill="#FEBD19"/>
<g clip-path="url(#clip0_14_124)">
<path d="M57.1267 54.0025H55.2682C54.9657 51.9801 53.4557 50.3804 51.5 49.9349V49.0631H56.9343C57.2406 49.0631 57.5067 48.9199 57.6459 48.6801C57.7852 48.4403 57.7773 48.1392 57.6249 47.8745L55.1536 43.5811H55.4065C55.7128 43.5811 55.9789 43.438 56.1181 43.1982C56.2574 42.9584 56.2495 42.6572 56.0971 42.3924L55.2366 40.8976C55.0787 40.6233 54.7276 40.5287 54.4524 40.686C54.1773 40.8433 54.0822 41.1934 54.24 41.4676L54.7975 42.436H54.5446C54.2383 42.436 53.9724 42.5791 53.833 42.8188C53.6937 43.0586 53.7015 43.3597 53.8539 43.6247L54.7999 45.2681C54.7407 45.3094 54.6824 45.352 54.626 45.397C54.0014 44.9017 53.2211 44.6255 52.4133 44.6255C51.6054 44.6255 50.8249 44.9018 50.2002 45.3974C50.1484 45.3563 50.0952 45.3173 50.0414 45.2794L49.064 43.5813H49.3168C49.6231 43.5813 49.8892 43.4381 50.0284 43.1983C50.1677 42.9585 50.1599 42.6574 50.0074 42.3927L47.4539 37.9566H47.789C48.0953 37.9566 48.3614 37.8134 48.5006 37.5736C48.6399 37.3338 48.632 37.0327 48.4796 36.768L47.3464 34.7993L49.7289 30.6604L53.2698 36.8115H52.9347C52.6285 36.8115 52.3625 36.9546 52.2232 37.1944C52.0839 37.4341 52.0917 37.7353 52.2441 38.0002L52.9658 39.254C53.1237 39.5283 53.4749 39.623 53.75 39.4657C54.0252 39.3083 54.1203 38.9584 53.9624 38.6841L53.5437 37.9567H53.8787C54.185 37.9567 54.4511 37.8135 54.5903 37.5737C54.7296 37.3339 54.7217 37.0327 54.5693 36.768L50.4178 29.5561C50.2649 29.2904 50.0075 29.1318 49.7291 29.1317C49.4507 29.1317 49.1931 29.2903 49.0401 29.556L46.6841 33.6488L44.3282 29.5561C44.1753 29.2904 43.9178 29.1317 43.6393 29.1317C43.3609 29.1317 43.1034 29.2903 42.9504 29.556L40.8313 33.2376L39.5711 31.0485H39.8164C40.1227 31.0485 40.3888 30.9054 40.528 30.6656C40.6674 30.4258 40.6595 30.1245 40.507 29.8599L36.5937 23.0616C36.4408 22.7959 36.1833 22.6373 35.9048 22.6373C35.6264 22.6373 35.3689 22.7959 35.2159 23.0615L31.3025 29.86C31.1502 30.1247 31.1424 30.426 31.2817 30.6657C31.421 30.9054 31.687 31.0486 31.9933 31.0486H32.2385L31.2385 32.7858L28.512 28.0493C28.3591 27.7837 28.1016 27.6251 27.8232 27.625C27.5448 27.625 27.2872 27.7836 27.1342 28.0492L22.6227 35.8861C22.4704 36.1509 22.4626 36.4521 22.6019 36.6919C22.7412 36.9316 23.0072 37.0747 23.3134 37.0747H23.7842L20.9735 41.9574C20.8212 42.2221 20.8133 42.5234 20.9526 42.7631C21.0919 43.0028 21.3579 43.146 21.6641 43.146H22.0463L21.0239 44.922C21.0236 44.9226 21.0232 44.9232 21.0229 44.9237L19.3243 47.8745C19.172 48.1392 19.1641 48.4405 19.3034 48.6802C19.4427 48.9199 19.7087 49.0631 20.0149 49.0631H26.0516V50.6051C25.4504 50.3189 24.784 50.1616 24.0938 50.1616C21.8175 50.1616 19.9344 51.8092 19.5862 54.0025H19.1039C18.7866 54.0025 18.5294 54.2589 18.5294 54.5751C18.5294 54.8913 18.7866 55.1477 19.1039 55.1477H20.105H57.1266C57.4439 55.1477 57.7011 54.8913 57.7011 54.5751C57.7011 54.2589 57.4439 54.0025 57.1267 54.0025ZM52.4134 45.7706C53.0931 45.7706 53.7441 46.0598 54.1997 46.5639C54.3086 46.6845 54.4637 46.7533 54.6265 46.7533C54.7893 46.7533 54.9445 46.6845 55.0534 46.5639C55.1521 46.4547 55.26 46.3561 55.3754 46.2676L56.3254 47.9179H51.557C51.5496 47.9035 51.5435 47.8887 51.5352 47.8745L50.7233 46.4639C51.1719 46.0218 51.7801 45.7706 52.4134 45.7706ZM49.1425 46.0188L50.2357 47.9179H37.6758V47.1234H44.159C44.4653 47.1234 44.7314 46.9802 44.8706 46.7404C45.0066 46.5064 45.0013 46.214 44.8593 45.9539C45.1481 45.8345 45.4602 45.7706 45.7787 45.7706C46.4584 45.7706 47.1095 46.0598 47.565 46.5639C47.6739 46.6846 47.8291 46.7533 47.9919 46.7533C48.1546 46.7533 48.3098 46.6845 48.4187 46.5639C48.6247 46.3361 48.8706 46.1525 49.1425 46.0188ZM50.3511 49.0632V49.8104C49.9249 49.8139 49.5074 49.8729 49.1068 49.9814V49.0632H50.3511ZM47.9579 49.0632V50.4551C47.2886 50.8357 46.7093 51.3709 46.2764 52.0253C46.0117 51.8239 45.7199 51.6635 45.4103 51.5477V49.0632H47.9579ZM44.2613 49.0632V51.3327C44.2454 51.3324 44.2296 51.3317 44.2136 51.3317C43.7934 51.3317 43.3903 51.4091 43.0172 51.5493V49.0632H44.2613ZM31.047 44.7153C31.1559 44.8359 31.3111 44.9047 31.4739 44.9047C31.6366 44.9047 31.7918 44.8359 31.9007 44.7153C32.329 44.2412 32.9411 43.9694 33.5802 43.9694C34.2193 43.9694 34.8313 44.2413 35.2597 44.7153C35.3686 44.8359 35.5237 44.9047 35.6865 44.9047C35.8493 44.9047 36.0044 44.8359 36.1134 44.7153C36.5417 44.2412 37.1537 43.9694 37.7928 43.9694C38.4318 43.9694 39.044 44.2413 39.4723 44.7153C39.5812 44.8359 39.7364 44.9047 39.8991 44.9047C40.0619 44.9047 40.2171 44.8359 40.326 44.7153C40.7543 44.2412 41.3663 43.9694 42.0054 43.9694C42.1432 43.9694 42.2804 43.9834 42.416 44.0084L43.5499 45.9782H28.2593L29.4149 43.9707C30.0344 43.9852 30.6296 44.2534 31.047 44.7153ZM30.0359 42.8916L30.7959 41.5714H41.0133L41.7407 42.8348C41.0682 42.8874 40.4269 43.1381 39.8992 43.5511C39.3027 43.0841 38.5607 42.8241 37.7929 42.8241C37.025 42.8241 36.2831 43.0841 35.6866 43.5511C35.0901 43.0841 34.3481 42.8241 33.5803 42.8241C32.8124 42.8241 32.0705 43.0841 31.474 43.5511C31.0531 43.2217 30.5596 42.9963 30.0359 42.8916ZM41.2639 36.3775C41.5702 36.3775 41.8363 36.2344 41.9756 35.9946C42.1149 35.7548 42.107 35.4535 41.9546 35.1889L41.4936 34.3881L43.6392 30.6602L47.1801 36.8112H46.8451C46.5388 36.8112 46.2728 36.9543 46.1335 37.194C45.9942 37.4338 46.002 37.735 46.1544 37.9999L48.708 42.436H48.4551C48.1489 42.436 47.8829 42.5791 47.7436 42.8188C47.6042 43.0586 47.6121 43.3597 47.7645 43.6247L48.5699 45.0239C48.3658 45.1293 48.1719 45.2537 47.9917 45.397C47.367 44.9016 46.5868 44.6255 45.779 44.6255C45.2584 44.6255 44.7495 44.7409 44.2861 44.9552L42.3382 41.5714H42.7116C43.0179 41.5714 43.284 41.4282 43.4233 41.1884C43.5626 40.9486 43.5547 40.6474 43.4023 40.3827L41.0967 36.3775L41.2639 36.3775ZM35.9047 24.1655L38.0107 27.8239C37.8911 27.8904 37.776 27.9645 37.6664 28.0468C37.1493 27.6596 36.5152 27.4447 35.8598 27.4447C35.2041 27.4447 34.5699 27.6596 34.0528 28.0471C33.9642 27.9806 33.8708 27.9209 33.7754 27.8646L35.9047 24.1655ZM33.2041 28.857C33.3601 28.9509 33.5027 29.0667 33.6258 29.2029C33.7347 29.3234 33.8899 29.3923 34.0527 29.3923C34.2155 29.3923 34.3706 29.3234 34.4796 29.2028C34.8315 28.8132 35.3346 28.5898 35.8598 28.5898C36.385 28.5898 36.8879 28.8133 37.24 29.2028C37.3489 29.3234 37.5041 29.3923 37.6668 29.3923C37.8296 29.3923 37.9848 29.3234 38.0937 29.2029C38.235 29.0464 38.4006 28.9172 38.5826 28.8177L39.2073 29.9029H32.602L33.2041 28.857ZM33.5629 31.0481H38.2463L39.4883 33.2057C39.435 33.2405 39.3827 33.2769 39.3318 33.3151C38.8147 32.9275 38.1804 32.7125 37.5247 32.7125C36.869 32.7125 36.2347 32.9275 35.7176 33.315C35.2004 32.9276 34.5662 32.7125 33.9105 32.7125C33.3577 32.7125 32.8204 32.8659 32.3554 33.1461L33.5629 31.0481ZM31.6237 34.4171C31.6412 34.435 31.6596 34.4521 31.6765 34.4708C31.7854 34.5914 31.9406 34.6602 32.1033 34.6602C32.2661 34.6602 32.4213 34.5914 32.5302 34.4708C32.8821 34.0812 33.3852 33.8578 33.9104 33.8578C34.4356 33.8578 34.9386 34.0812 35.2906 34.4708C35.3995 34.5914 35.5547 34.6602 35.7175 34.6602C35.8802 34.6602 36.0354 34.5914 36.1443 34.4708C36.4963 34.0812 36.9993 33.8578 37.5245 33.8578C38.0497 33.8578 38.5527 34.0812 38.9047 34.4708C39.0136 34.5914 39.1688 34.6602 39.3316 34.6602C39.4944 34.6602 39.6495 34.5914 39.7584 34.4708C39.8492 34.3703 39.9515 34.2807 40.0618 34.2022L40.6546 35.2321H38.8268C38.5096 35.2321 38.2524 35.4885 38.2524 35.8047C38.2524 36.1209 38.5096 36.3773 38.8268 36.3773H39.7718L40.5292 37.6931C40.2765 37.7924 40.0377 37.9242 39.82 38.0882C39.2989 37.6969 38.6593 37.4797 37.9981 37.4797C37.3367 37.4797 36.697 37.697 36.1758 38.0886C35.6546 37.697 35.0149 37.4797 34.3535 37.4797C33.6921 37.4797 33.0524 37.697 32.5312 38.0886C32.1843 37.8279 31.7849 37.6451 31.3614 37.5518L32.0375 36.3773H36.1461C36.4634 36.3773 36.7206 36.1209 36.7206 35.8047C36.7206 35.4885 36.4634 35.2321 36.1461 35.2321H31.1545L31.6237 34.4171ZM32.1042 39.2449C32.2132 39.3655 32.3683 39.4343 32.5311 39.4343C32.6939 39.4343 32.849 39.3654 32.958 39.2449C33.3138 38.851 33.8225 38.6251 34.3534 38.6251C34.8843 38.6251 35.3929 38.851 35.7489 39.2449C35.8578 39.3654 36.0129 39.4343 36.1757 39.4343C36.3385 39.4343 36.4936 39.3654 36.6026 39.2449C36.9584 38.851 37.4671 38.6251 37.998 38.6251C38.529 38.6251 39.0376 38.851 39.3935 39.2449C39.5024 39.3654 39.6576 39.4343 39.8203 39.4343C39.9831 39.4343 40.1383 39.3654 40.2472 39.2449C40.4816 38.9854 40.7802 38.7994 41.1099 38.7024L42.1022 40.4262H29.7069L30.7431 38.626C31.2616 38.6355 31.7561 38.8594 32.1042 39.2449ZM25.0836 37.1182C25.2361 36.8535 25.244 36.5522 25.1047 36.3124C24.9655 36.0726 24.6994 35.9295 24.3931 35.9295H23.9223L27.8229 29.1533L30.5761 33.9361L29.8549 35.1889C29.7026 35.4537 29.6948 35.7549 29.834 35.9947C29.9734 36.2344 30.2394 36.3775 30.5456 36.3775H30.7129L28.4073 40.3829C28.255 40.6477 28.2472 40.9489 28.3864 41.1886C28.5257 41.4284 28.7917 41.5715 29.098 41.5715H29.4714L27.4367 45.1064C26.8121 44.6929 26.0734 44.4652 25.3117 44.4652C24.4231 44.4652 23.5654 44.7742 22.8844 45.3274C22.7113 45.1867 22.526 45.0613 22.3313 44.9525L23.3461 43.1897C23.4986 42.925 23.5064 42.6237 23.3671 42.3839C23.2279 42.1441 22.9618 42.001 22.6555 42.001H22.2733L25.0836 37.1182ZM20.7535 54.0025C21.0857 52.451 22.4539 51.3069 24.094 51.3069C25.435 51.3069 26.6584 52.0992 27.2108 53.3256C27.2925 53.507 27.4629 53.6332 27.6609 53.6589C27.8587 53.6847 28.0558 53.606 28.1814 53.4513C28.5685 52.9745 29.1415 52.701 29.7533 52.701C30.6103 52.701 31.3507 53.2386 31.6442 54.0024H20.7535V54.0025ZM27.2007 51.3848V49.0632H28.445V51.8375C28.2447 51.9282 28.0538 52.0393 27.8756 52.1704C27.6798 51.8815 27.4527 51.6187 27.2007 51.3848ZM34.1337 54.0025H32.8428C32.687 53.3405 32.3251 52.7601 31.8297 52.331C32.5293 52.005 33.3076 51.7703 34.1337 51.6417V54.0025ZM34.1337 47.918H33.3887C33.0715 47.918 32.8143 48.1743 32.8143 48.4906C32.8143 48.8068 33.0715 49.0632 33.3887 49.0632H34.1337V50.4858C32.8434 50.6657 31.6445 51.0782 30.6239 51.678C30.3467 51.5988 30.0548 51.5558 29.7534 51.5558C29.7 51.5558 29.6468 51.5576 29.5939 51.5602V49.0632H30.7079C31.0251 49.0632 31.2823 48.8068 31.2823 48.4906C31.2823 48.1743 31.0251 47.918 30.7079 47.918H20.624L21.7589 45.9465C22.0195 46.0904 22.2567 46.2766 22.4573 46.4987C22.5663 46.6193 22.7214 46.6881 22.8843 46.6881C23.047 46.6881 23.2022 46.6193 23.3111 46.4987C23.8212 45.9341 24.5503 45.6103 25.3115 45.6103C25.8782 45.6103 26.4269 45.7901 26.881 46.1147C26.8121 46.3299 26.8301 46.5538 26.9387 46.7406C27.078 46.9803 27.344 47.1235 27.6502 47.1235H34.1335V47.918H34.1337ZM36.5269 54.0025H35.2826V47.1235H36.5269V54.0025ZM40.883 54.0025H37.6758V51.7542C39.0057 52.0517 40.1824 52.6321 41.0663 53.4249C40.9887 53.6095 40.9275 53.8028 40.883 54.0025ZM41.8683 52.2675C41.8062 52.3262 41.7468 52.3877 41.6893 52.451C40.6188 51.5438 39.2267 50.8943 37.6758 50.5859V49.0632H41.8683V52.2675ZM42.0741 54.0025C42.3827 53.1113 43.2293 52.4768 44.2136 52.4768C44.8975 52.4768 45.5379 52.7824 45.9706 53.3153C46.0961 53.47 46.2937 53.5487 46.4911 53.5229C46.689 53.4973 46.8595 53.3711 46.9412 53.1896C47.5525 51.8321 48.9069 50.9549 50.3915 50.9549C52.2295 50.9549 53.7591 52.2525 54.1027 54.0026H42.0741V54.0025Z" fill="#FEBD19"/>
</g>
<defs>
<filter id="filter0_d_14_124" x="0.692993" y="54.343" width="127.026" height="30.745" filterUnits="userSpaceOnUse" color-interpolation-filters="sRGB">
<feFlood flood-opacity="0" result="BackgroundImageFix"/>
<feColorMatrix in="SourceAlpha" type="matrix" values="0 0 0 0 0 0 0 0 0 0 0 0 0 0 0 0 0 0 127 0" result="hardAlpha"/>
<feOffset dy="3"/>
<feGaussianBlur stdDeviation="5.5"/>
<feComposite in2="hardAlpha" operator="out"/>
<feColorMatrix type="matrix" values="0 0 0 0 1 0 0 0 0 1 0 0 0 0 1 0 0 0 0.5 0"/>
<feBlend mode="normal" in2="BackgroundImageFix" result="effect1_dropShadow_14_124"/>
<feBlend mode="normal" in="SourceGraphic" in2="effect1_dropShadow_14_124" result="shape"/>
</filter>
<clipPath id="clip0_14_124">
<rect width="39.2157" height="39.0886" fill="white" transform="translate(18.5294 19.3482)"/>
</clipPath>
</defs>
</svg>
